<?xml version="1.0" encoding="utf-8"?>
<!-- Generator: Adobe Illustrator 23.0.3, SVG Export Plug-In . SVG Version: 6.00 Build 0)  -->
<svg version="1.1" id="Calque_1" xmlns="http://www.w3.org/2000/svg" xmlns:xlink="http://www.w3.org/1999/xlink" x="0px" y="0px"
	 viewBox="0 0 90.8 90.2" style="enable-background:new 0 0 90.8 90.2;" xml:space="preserve">
<style type="text/css">
	.st0{fill:#FFFFFF;}
</style>
<g>
	<path class="st0" d="M52.5,2.5c0.5,0.3,0.9,0.8,1.2,1.3c0.3,0.5,0.5,1.1,0.5,1.8l-2.7-0.3c-0.1-0.3-0.2-0.5-0.5-0.7
		c-0.2-0.2-0.5-0.3-0.7-0.3c-0.4,0-0.8,0.1-1.1,0.4c-0.3,0.3-0.5,0.7-0.5,1.3c-0.1,0.5,0,1,0.2,1.3c0.2,0.3,0.5,0.5,1,0.6
		c0.3,0,0.6,0,0.8-0.1c0.2-0.1,0.4-0.3,0.6-0.6L54,7.4C53.8,8,53.5,8.6,53.1,9c-0.4,0.4-0.9,0.8-1.5,1c-0.6,0.2-1.2,0.3-1.9,0.2
		c-0.8-0.1-1.5-0.3-2.1-0.8s-1-1-1.2-1.6c-0.3-0.7-0.3-1.4-0.2-2.2c0.1-0.8,0.3-1.5,0.7-2.1c0.4-0.6,0.9-1,1.6-1.3
		c0.6-0.3,1.4-0.4,2.2-0.3C51.4,2,52,2.2,52.5,2.5z"/>
	<path class="st0" d="M57.2,9.8l2.4,0.8L59,12.4l-4.8-1.5L56.7,3l2.4,0.8L57.2,9.8z"/>
	<path class="st0" d="M65.3,6.3l-3.5,7.4l-2.3-1.1l3.5-7.4L65.3,6.3z"/>
	<path class="st0" d="M66.3,18.1l0.1-1.5c-0.2-0.1-0.3-0.2-0.5-0.3c-0.6-0.4-1.1-1-1.4-1.7C64.1,14,64,13.3,64,12.5
		c0.1-0.7,0.3-1.4,0.8-2.1s1-1.1,1.7-1.4c0.7-0.3,1.4-0.4,2.1-0.4c0.7,0.1,1.4,0.3,2,0.8s1.1,1,1.4,1.6c0.3,0.7,0.5,1.4,0.4,2.1
		c-0.1,0.7-0.3,1.4-0.8,2.1c-0.4,0.5-0.8,1-1.3,1.3S69.3,17,68.7,17l0.1,2.8L66.3,18.1z M66.5,13.2c0,0.4,0.3,0.8,0.7,1.1
		c0.4,0.3,0.8,0.4,1.2,0.3c0.4-0.1,0.8-0.4,1.1-0.8c0.3-0.5,0.5-0.9,0.4-1.3c0-0.4-0.3-0.8-0.7-1.1C68.9,11,68.4,11,68,11.1
		s-0.8,0.4-1.1,0.9C66.6,12.4,66.5,12.8,66.5,13.2z"/>
	<path class="st0" d="M77.4,15.4L74,18.5c-0.3,0.3-0.4,0.5-0.5,0.8c-0.1,0.3,0,0.5,0.3,0.8c0.2,0.3,0.5,0.4,0.8,0.4s0.6-0.1,0.8-0.4
		l3.4-3.1l1.7,1.9L77.1,22c-0.6,0.5-1.2,0.8-1.8,1c-0.6,0.1-1.2,0.1-1.8-0.2s-1.1-0.6-1.6-1.1S71.2,20.6,71,20
		c-0.2-0.6-0.1-1.2,0.1-1.8c0.2-0.6,0.6-1.1,1.2-1.7l3.4-3.1L77.4,15.4z"/>
	<path class="st0" d="M81.4,24.1l-0.9,0.5l1.3,2.2l-1.7,1l-1.3-2.2l-1,0.6l1.5,2.5l-1.8,1L74.8,25l7-4.2l2.8,4.7l-1.7,1L81.4,24.1z"
		/>
	<path class="st0" d="M79.3,34.1l2.2-2.5l-2.8,1l-0.9-2.4l7.7-2.8l1.3,3.6c0.2,0.6,0.3,1.2,0.2,1.7s-0.2,1-0.5,1.3s-0.7,0.6-1.2,0.8
		c-0.5,0.2-1,0.2-1.5,0.1c-0.5-0.1-0.9-0.4-1.3-0.9l-2.3,2.7L79.3,34.1z M83.2,31l0.3,1c0.1,0.2,0.2,0.4,0.3,0.5
		c0.1,0.1,0.3,0.1,0.6,0c0.2-0.1,0.3-0.2,0.4-0.4c0.1-0.2,0.1-0.4,0-0.6l-0.3-1L83.2,31z"/>
	<path class="st0" d="M83.5,41.3L81,41.5L80.7,39l8.1-0.7l0.3,3.6c0.1,1-0.1,1.8-0.5,2.4c-0.5,0.6-1.1,0.9-2,1c-0.5,0-1,0-1.4-0.2
		c-0.4-0.2-0.8-0.5-1.1-1c-0.3-0.4-0.5-1-0.5-1.7L83.5,41.3z M86.4,42.5c0.5,0,0.7-0.3,0.7-0.9L87,41l-1.5,0.1l0.1,0.7
		C85.7,42.3,85.9,42.6,86.4,42.5z"/>
	<path class="st0" d="M88.3,53c-0.4,0.6-1,1-1.7,1.3c-0.7,0.3-1.4,0.4-2.2,0.3c-0.8-0.1-1.5-0.4-2.1-0.8c-0.6-0.5-1-1-1.3-1.7
		c-0.3-0.7-0.4-1.4-0.3-2.2c0.1-0.8,0.4-1.4,0.8-2c0.4-0.6,1-1,1.7-1.3c0.7-0.3,1.4-0.4,2.2-0.3c0.8,0.1,1.5,0.4,2.1,0.8
		c0.6,0.5,1,1,1.3,1.7s0.4,1.4,0.3,2.2C89,51.8,88.8,52.4,88.3,53z M86.4,49.5c-0.3-0.3-0.7-0.5-1.3-0.6c-0.5-0.1-1,0-1.4,0.2
		s-0.6,0.6-0.6,1.1c-0.1,0.5,0,0.9,0.3,1.2c0.3,0.3,0.7,0.5,1.3,0.6c0.6,0.1,1,0,1.4-0.2s0.6-0.6,0.6-1.1
		C86.8,50.2,86.7,49.8,86.4,49.5z"/>
	<path class="st0" d="M86.9,59.8l-4.3-1.6c-0.4-0.1-0.7-0.2-0.9-0.1c-0.3,0.1-0.5,0.3-0.6,0.6s-0.1,0.6,0,0.9
		c0.1,0.2,0.4,0.4,0.7,0.6l4.3,1.6l-0.9,2.4L81,62.6c-0.7-0.3-1.3-0.7-1.7-1.2s-0.6-1.1-0.7-1.7c-0.1-0.6,0-1.3,0.3-1.9
		c0.2-0.6,0.6-1.2,1-1.6c0.4-0.4,1-0.6,1.6-0.7c0.6-0.1,1.3,0,2,0.3l4.3,1.6L86.9,59.8z"/>
	<path class="st0" d="M75,65.4l3.3,0.3l-2.5-1.6l1.4-2.2l6.9,4.4l-2.1,3.2c-0.4,0.6-0.8,1-1.2,1.2s-0.9,0.4-1.4,0.4
		s-0.9-0.2-1.3-0.4c-0.5-0.3-0.8-0.7-1-1.2c-0.2-0.5-0.2-1-0.1-1.6l-3.6-0.2L75,65.4z M79.8,66.6l-0.6,0.9c-0.1,0.2-0.2,0.4-0.2,0.6
		c0,0.2,0.1,0.3,0.3,0.4c0.2,0.1,0.4,0.2,0.5,0.1c0.2,0,0.3-0.2,0.5-0.4l0.6-0.9L79.8,66.6z"/>
	<path class="st0" d="M74.3,75.7l-0.7-0.7l-1.8,1.7l-1.3-1.4l1.8-1.7l-0.8-0.8l-2.1,2L68,73.2l4-3.7l5.6,5.9l-4,3.7l-1.4-1.5
		L74.3,75.7z"/>
	<path class="st0" d="M60.9,77.8l2.2-1.3l4.5,2.1L65.4,75l2.2-1.3l4.3,7l-2.2,1.3l-4.5-2.1l2.2,3.6l-2.2,1.3L60.9,77.8z"/>
	<path class="st0" d="M53.1,81.5c0.1-0.4,0.4-0.8,0.8-1.2s0.9-0.6,1.5-0.8c0.9-0.3,1.8-0.3,2.5,0c0.7,0.3,1.3,0.8,1.6,1.6l-2.6,0.8
		c-0.2-0.4-0.4-0.6-0.8-0.5c-0.1,0-0.2,0.1-0.3,0.2c-0.1,0.1-0.1,0.2,0,0.3c0.1,0.2,0.2,0.3,0.4,0.4c0.2,0.1,0.6,0.1,1,0.1
		c0.5,0,1,0.1,1.4,0.1c0.4,0.1,0.7,0.2,1.1,0.5c0.3,0.3,0.6,0.7,0.7,1.2c0.1,0.5,0.1,1,0,1.4c-0.2,0.4-0.4,0.8-0.8,1.1
		c-0.4,0.3-0.9,0.6-1.5,0.7c-0.9,0.3-1.7,0.3-2.4,0s-1.2-0.8-1.5-1.6l2.6-0.8c0.2,0.4,0.4,0.6,0.7,0.5c0.1,0,0.2-0.1,0.2-0.2
		c0-0.1,0.1-0.2,0-0.3c0-0.2-0.2-0.3-0.4-0.3c-0.2-0.1-0.5-0.1-1-0.1c-0.6,0-1-0.1-1.4-0.2c-0.4-0.1-0.7-0.2-1.1-0.5
		s-0.6-0.7-0.7-1.2C53,82.3,53,81.9,53.1,81.5z"/>
	<path class="st0" d="M46.8,82.2l2.7-0.2l0.3-1.3l2.7-0.2l-2.4,8.4l-2.9,0.2l-3.5-8l2.7-0.2L46.8,82.2z M47.5,84.1l0.9,2.2L49,84
		L47.5,84.1z"/>
	<path class="st0" d="M40,88.8L39.3,83l-2.6,5.3L34,87.8l4.1-7.6l3.3,0.5l1.4,8.5L40,88.8z"/>
	<path class="st0" d="M26.5,84.4c-0.4-0.6-0.7-1.2-0.8-2c-0.1-0.7,0-1.5,0.3-2.2c0.3-0.7,0.8-1.3,1.4-1.8c0.6-0.4,1.3-0.7,2-0.8
		c0.7-0.1,1.4,0,2.1,0.3c0.7,0.3,1.3,0.7,1.7,1.3c0.4,0.6,0.7,1.2,0.8,2s0,1.5-0.3,2.2s-0.8,1.3-1.4,1.8c-0.6,0.4-1.3,0.7-2,0.8
		c-0.7,0.1-1.5,0-2.2-0.3C27.6,85.4,27,85,26.5,84.4z M30.5,83.6c0.4-0.2,0.7-0.5,0.9-1.1c0.2-0.5,0.3-1,0.1-1.4
		c-0.1-0.4-0.4-0.7-0.9-0.9c-0.5-0.2-0.9-0.2-1.3,0c-0.4,0.2-0.7,0.5-0.9,1c-0.2,0.5-0.3,1-0.1,1.4c0.1,0.4,0.4,0.7,0.9,0.9
		C29.7,83.7,30.1,83.8,30.5,83.6z"/>
	<path class="st0" d="M20.7,81.4l4.5-6.9l2.1,1.4l-4.5,6.9L20.7,81.4z"/>
	<path class="st0" d="M21.3,71.4l-0.8,3.2l2-2.2l1.9,1.7L19,80.2l-2.8-2.5c-0.5-0.4-0.8-0.9-1-1.4s-0.2-1-0.1-1.4
		c0.1-0.5,0.3-0.9,0.6-1.3c0.4-0.4,0.8-0.7,1.3-0.8s1,0,1.6,0.2l0.8-3.5L21.3,71.4z M19.4,75.9l-0.8-0.7c-0.2-0.2-0.4-0.2-0.5-0.2
		s-0.3,0.1-0.5,0.3c-0.1,0.2-0.2,0.3-0.2,0.5c0,0.2,0.1,0.3,0.3,0.5l0.8,0.7L19.4,75.9z"/>
	<path class="st0" d="M14.2,67.1l2.2-1.4l1.4,2.1L11,72.3l-2-3c-0.6-0.8-0.8-1.6-0.6-2.3c0.1-0.7,0.5-1.3,1.3-1.8
		c0.4-0.3,0.9-0.4,1.4-0.5s1,0.1,1.4,0.3s0.9,0.7,1.2,1.2L14.2,67.1z M11,67.3c-0.4,0.3-0.5,0.6-0.2,1.1l0.4,0.6l1.2-0.8l-0.4-0.6
		C11.8,67.1,11.5,67.1,11,67.3z"/>
	<path class="st0" d="M11.1,60.2l-1-2.3l1.8-0.8l2,4.6L6.4,65l-1-2.4L11.1,60.2z"/>
	<path class="st0" d="M3.2,56.1l4.5-1C8,55,8.3,54.8,8.5,54.6c0.2-0.2,0.2-0.5,0.1-0.9c-0.1-0.4-0.2-0.6-0.5-0.7
		c-0.3-0.1-0.6-0.1-0.9-0.1l-4.5,1l-0.6-2.5l4.5-1c0.8-0.2,1.4-0.2,2,0c0.6,0.2,1.1,0.5,1.5,1c0.4,0.5,0.7,1.1,0.8,1.7
		c0.2,0.7,0.2,1.3,0,1.9s-0.5,1.1-0.9,1.5c-0.5,0.4-1.1,0.7-1.9,0.9l-4.5,1L3.2,56.1z"/>
	<path class="st0" d="M8.9,43c0.4,0.2,0.7,0.6,0.9,1c0.2,0.5,0.3,1,0.4,1.6c0,1-0.2,1.8-0.6,2.4c-0.4,0.6-1.1,1-2,1.1l0-2.7
		c0.5,0,0.7-0.3,0.7-0.6c0-0.1,0-0.2-0.1-0.3c-0.1-0.1-0.2-0.1-0.3-0.1c-0.2,0-0.3,0.1-0.5,0.3c-0.1,0.2-0.2,0.5-0.4,1
		c-0.2,0.5-0.3,1-0.5,1.3c-0.2,0.3-0.4,0.6-0.8,0.9c-0.3,0.3-0.8,0.4-1.3,0.4c-0.5,0-1-0.1-1.4-0.4c-0.4-0.3-0.7-0.6-0.9-1.1
		c-0.2-0.5-0.3-1-0.3-1.6c0-1,0.2-1.8,0.6-2.3c0.4-0.6,1.1-0.9,1.9-1l0,2.8c-0.4,0-0.6,0.2-0.6,0.5c0,0.1,0,0.2,0.1,0.3
		c0.1,0.1,0.2,0.1,0.3,0.1c0.2,0,0.3-0.1,0.4-0.3c0.1-0.2,0.2-0.5,0.4-0.9c0.2-0.5,0.4-1,0.5-1.3s0.4-0.6,0.8-0.9
		c0.3-0.3,0.8-0.4,1.3-0.4C8.1,42.7,8.5,42.8,8.9,43z"/>
	<path class="st0" d="M3.3,34.3l1.5-0.5l0.1,1.3L5.6,34l1.2,1.1l-1.2,0.8l1.4,0l-0.3,1.6l-1.2-0.6L6.2,38l-1.6,0.5l-0.1-1.3
		l-0.6,1.1l-1.2-1.1l1.2-0.8l-1.4,0.1l0.4-1.6L4,35.6L3.3,34.3z"/>
	<path class="st0" d="M5.8,27.2L7.4,27l-0.1,1.3l0.9-1l1,1.3l-1.3,0.5l1.4,0.2l-0.6,1.5l-1.1-0.8l0.6,1.3l-1.7,0.2l0.1-1.3l-0.8,1
		l-1-1.2l1.3-0.6l-1.4-0.2l0.6-1.5l1.1,0.8L5.8,27.2z"/>
	<path class="st0" d="M9.5,20.6l1.6,0.1L10.8,22l1-0.9l0.8,1.5L11.2,23l1.3,0.5l-0.9,1.4l-1-1l0.3,1.4l-1.7-0.1l0.3-1.3l-1,0.9
		l-0.8-1.4l1.4-0.4l-1.4-0.4l0.9-1.4l1,1L9.5,20.6z"/>
	<path class="st0" d="M14.3,14.8l1.6,0.4l-0.6,1.2l1.2-0.7l0.5,1.6l-1.4,0.1l1.2,0.7l-1.1,1.2l-0.8-1.1l0.1,1.4l-1.7-0.4l0.6-1.2
		l-1.1,0.7l-0.5-1.5l1.4-0.1l-1.3-0.7l1.1-1.2l0.8,1.2L14.3,14.8z"/>
	<path class="st0" d="M20,9.9l1.5,0.6l-0.8,1.1l1.3-0.5l0.2,1.7l-1.4-0.2l1.1,0.9l-1.3,1l-0.6-1.3l-0.2,1.4L18.3,14l0.8-1.1
		l-1.2,0.5l-0.2-1.6l1.4,0.1L17.9,11l1.3-1l0.6,1.3L20,9.9z"/>
	<path class="st0" d="M26.5,6l1.3,0.9l-0.9,1l1.3-0.3l-0.1,1.7l-1.4-0.4l0.9,1l-1.4,0.8L26,9.4l-0.4,1.3l-1.5-0.9l0.9-1l-1.3,0.3
		l0-1.6l1.4,0.3l-1-1L25.7,6L26,7.4L26.5,6z"/>
	<path class="st0" d="M33.5,3.3l1.2,1.1l-1.1,0.8l1.3,0l-0.3,1.7l-1.3-0.6l0.7,1.2l-1.5,0.5l-0.1-1.4l-0.6,1.3l-1.3-1.1l1.1-0.8
		l-1.3,0l0.3-1.6l1.3,0.6l-0.8-1.2l1.6-0.5l0.1,1.4L33.5,3.3z"/>
	<path class="st0" d="M41,1.9l1,1.3l-1.2,0.6L42,4l-0.6,1.6l-1.1-0.8L40.8,6l-1.6,0.2l0.1-1.4L38.5,6l-1.1-1.4L38.6,4l-1.3-0.2
		l0.6-1.5l1.2,0.8l-0.5-1.3l1.6-0.2L40,3L41,1.9z"/>
</g>
</svg>
