<svg id="Calque_1" data-name="Calque 1" xmlns="http://www.w3.org/2000/svg" viewBox="0 0 1820.5 1072.3"><defs><style>.cls-1{stroke:#f4f4f4;}.cls-1,.cls-2{stroke-miterlimit:10;stroke-width:3px;}.cls-2{stroke:#f7f7f7;}.cls-3{fill:#d31a35;}</style></defs><title>logo_MMI2</title><path class="cls-1" d="M1547,419.2V735.4a84.4,84.4,0,0,1-168.8,1.8V435.3c-7.7-136.2-114.4-209.9-235.4-209.9S915,299,907.3,435.3V736a83.85,83.85,0,1,1-167.7,1.7V435.3c-7.7-136.3-114.4-210-235.4-210S276.5,299,268.8,435.3v361H100V419.2C113.2,185.3,296.3,58.8,504.2,58.8c126.5,0,243.8,46.9,319.3,136.3C899,105.7,1016.3,58.8,1142.8,58.8,1350.6,58.8,1533.7,185.3,1547,419.2Z" transform="translate(-98.5 -57.3)"/><path class="cls-2" d="M419.8,767.7V451.5a84.4,84.4,0,1,1,168.8-1.8V751.5c7.7,136.4,114.4,210,235.4,210s227.7-73.7,235.4-209.9V451a83.85,83.85,0,0,1,167.7-1.7V751.7c7.7,136.2,114.4,209.9,235.4,209.9s227.7-73.7,235.4-209.9v-361h168.7v377c-13.2,233.9-196.4,360.4-404.2,360.4-126.5,0-243.8-46.9-319.3-136.3-75.5,89.4-192.8,136.3-319.3,136.3C616.1,1128.1,433,1001.6,419.8,767.7Z" transform="translate(-98.5 -57.3)"/><path class="cls-3" d="M1866.8,265.5H1698V111.7h168.8Zm13.3-206H1684.6a38.94,38.94,0,0,0-38.9,38.9h0V278.8a38.88,38.88,0,0,0,38.9,38.9h195.5a38.88,38.88,0,0,0,38.9-38.9V98.4a38.75,38.75,0,0,0-38.9-38.9Z" transform="translate(-98.5 -57.3)"/></svg>