<svg id="Calque_1" data-name="Calque 1" xmlns="http://www.w3.org/2000/svg" viewBox="0 0 89.73 89.59"><defs><style>.cls-1{fill:#fff;}</style></defs><title>next</title><path class="cls-1" d="M51.43,7.29a2.41,2.41,0,0,1-1.08.76,3.5,3.5,0,0,1-1.59.17,3.8,3.8,0,0,1-2.24-.85,2.41,2.41,0,0,1-.81-2l2.58.23q0,.68.54.72a.53.53,0,0,0,.31-.07A.38.38,0,0,0,49.28,6,.52.52,0,0,0,49,5.51a5.39,5.39,0,0,0-.88-.44A9.57,9.57,0,0,1,47,4.47a2.49,2.49,0,0,1-.79-.82A2.2,2.2,0,0,1,46,2.33a2.11,2.11,0,0,1,.51-1.25A2.36,2.36,0,0,1,47.59.37,3.86,3.86,0,0,1,49.13.23a3.49,3.49,0,0,1,2.16.84A2.44,2.44,0,0,1,52,3L49.4,2.78q0-.61-.45-.66a.38.38,0,0,0-.26.07.38.38,0,0,0-.12.27.47.47,0,0,0,.24.44,6,6,0,0,0,.84.44A9.7,9.7,0,0,1,50.84,4a2.63,2.63,0,0,1,.79.83,2.12,2.12,0,0,1,.25,1.31A2.22,2.22,0,0,1,51.43,7.29Z" transform="translate(-0.41 -0.21)"/><path class="cls-1" d="M56.65,1.64,55.44,5.86a1.36,1.36,0,0,0,0,.89.9.9,0,0,0,.65.51,1,1,0,0,0,.84-.09,1.34,1.34,0,0,0,.47-.75L58.6,2.2l2.34.67L59.73,7.09a3.68,3.68,0,0,1-1,1.7,3,3,0,0,1-1.54.79,4.1,4.1,0,0,1-1.83-.12,3.77,3.77,0,0,1-1.58-.86A2.8,2.8,0,0,1,53,7.14a3.88,3.88,0,0,1,.11-1.95L54.31,1Z" transform="translate(-0.41 -0.21)"/><path class="cls-1" d="M64.93,4.71,61.7,11.8l-2.22-1L62.71,3.7Z" transform="translate(-0.41 -0.21)"/><path class="cls-1" d="M68.51,6.66,66.91,12l4.28-3.6,2.17,1.43-6.47,5.07-2.64-1.74,2.1-7.95Z" transform="translate(-0.41 -0.21)"/><path class="cls-1" d="M73.5,19.27l-1.81-1.86L70.58,18l-1.79-1.84,7.57-3.39,2,2-3.6,7.47-1.8-1.85Zm.91-1.71,1.06-2-2,1Z" transform="translate(-0.41 -0.21)"/><path class="cls-1" d="M78.72,28.76l-1.28-2.08,2-4.25-3.33,2.05L74.81,22.4l6.63-4.08,1.28,2.08-2,4.29,3.39-2.09,1.29,2.08Z" transform="translate(-0.41 -0.21)"/><path class="cls-1" d="M88.4,32.53l-1.82.67-.71-1.94-5.49,2L79.53,31,85,29l-.7-1.92,1.81-.67Z" transform="translate(-0.41 -0.21)"/><path class="cls-1" d="M89.38,39l-1.22.91-.56-1.16L87.4,40l-1.5-.6.81-1.08-1.23.48-.21-1.51,1.31.13-1.07-.8,1.29-1,.56,1.16.19-1.24,1.42.55-.77,1.13,1.25-.52.21,1.55-1.34-.14Z" transform="translate(-0.41 -0.21)"/><path class="cls-1" d="M83.22,48.85a2.37,2.37,0,0,1-.82-1,3.55,3.55,0,0,1-.27-1.58A3.93,3.93,0,0,1,82.85,44a2.41,2.41,0,0,1,2-.92l-.07,2.59c-.45,0-.68.22-.69.57a.4.4,0,0,0,.09.31.34.34,0,0,0,.28.12.47.47,0,0,0,.44-.26,6,6,0,0,0,.4-.9,7.48,7.48,0,0,1,.53-1.21,2.43,2.43,0,0,1,.77-.83,2.38,2.38,0,0,1,2.58.1,2.45,2.45,0,0,1,.78,1.09,4,4,0,0,1,.22,1.53,3.43,3.43,0,0,1-.71,2.2,2.45,2.45,0,0,1-1.89.85l.07-2.63q.62,0,.63-.48a.33.33,0,0,0-.08-.26.4.4,0,0,0-.28-.11.48.48,0,0,0-.42.27,5.76,5.76,0,0,0-.39.86,9.86,9.86,0,0,1-.56,1.23,2.49,2.49,0,0,1-.79.83,2,2,0,0,1-1.29.33A2.16,2.16,0,0,1,83.22,48.85Z" transform="translate(-0.41 -0.21)"/><path class="cls-1" d="M89.17,53.73l-4.29-.95a1.36,1.36,0,0,0-.88,0,.87.87,0,0,0-.47.68,1,1,0,0,0,.13.83,1.35,1.35,0,0,0,.78.43l4.28,1-.53,2.37-4.28-1a3.7,3.7,0,0,1-1.75-.86,2.93,2.93,0,0,1-.88-1.49,4.08,4.08,0,0,1,0-1.84,3.92,3.92,0,0,1,.77-1.63,2.85,2.85,0,0,1,1.41-.9,3.88,3.88,0,0,1,2,0l4.29,1Z" transform="translate(-0.41 -0.21)"/><path class="cls-1" d="M86.59,62.19l-7.27-2.8.88-2.28,7.27,2.8Z" transform="translate(-0.41 -0.21)"/><path class="cls-1" d="M84.85,65.88l-5.44-1.29,3.84,4.06L82,70.9l-5.44-6.16L78.1,62l8.05,1.62Z" transform="translate(-0.41 -0.21)"/><path class="cls-1" d="M72.55,71.61l1.76-1.92-.61-1.07,1.73-1.9,3.82,7.36-1.9,2.08L69.69,73l1.74-1.9Zm1.76.8,2.07.94-1.12-2Z" transform="translate(-0.41 -0.21)"/><path class="cls-1" d="M63.38,77.37l2-1.4,4.37,1.73L67.5,74.49l2-1.4L74,79.47l-2,1.4-4.4-1.78,2.28,3.26-2,1.4Z" transform="translate(-0.41 -0.21)"/><path class="cls-1" d="M60.2,87.25l-.78-1.77,1.89-.83L59,79.29l2.24-1,2.34,5.36,1.88-.82.77,1.77Z" transform="translate(-0.41 -0.21)"/><path class="cls-1" d="M52.51,89.13l-1-1.16,1.12-.63-1.27-.13.52-1.53,1.12.75-.55-1.21,1.5-.29-.06,1.32.74-1.12,1.08,1.23L54.61,87l1.24.11-.46,1.45-1.17-.7.59,1.22-1.53.3,0-1.35Z" transform="translate(-0.41 -0.21)"/><path class="cls-1" d="M41.76,82.91a2.42,2.42,0,0,1,1-.83,3.69,3.69,0,0,1,1.58-.28,3.76,3.76,0,0,1,2.29.7,2.37,2.37,0,0,1,1,1.93L45,84.38c0-.44-.23-.67-.59-.68a.44.44,0,0,0-.3.1.32.32,0,0,0-.12.28.5.5,0,0,0,.27.44,5.35,5.35,0,0,0,.9.38,8.74,8.74,0,0,1,1.22.52,2.55,2.55,0,0,1,.84.77,2.14,2.14,0,0,1,.34,1.29,2.09,2.09,0,0,1-.42,1.28,2.35,2.35,0,0,1-1.08.79,4,4,0,0,1-1.53.25,3.53,3.53,0,0,1-2.21-.69,2.46,2.46,0,0,1-.87-1.89l2.63,0c0,.41.2.62.5.63a.37.37,0,0,0,.25-.09.4.4,0,0,0,.11-.28.48.48,0,0,0-.28-.42,5,5,0,0,0-.86-.38,9.33,9.33,0,0,1-1.23-.55,2.69,2.69,0,0,1-.85-.77,2.18,2.18,0,0,1-.34-1.29A2.21,2.21,0,0,1,41.76,82.91Z" transform="translate(-0.41 -0.21)"/><path class="cls-1" d="M36.93,88.9l.91-4.29a1.42,1.42,0,0,0-.05-.88.93.93,0,0,0-.69-.47,1,1,0,0,0-.83.15,1.29,1.29,0,0,0-.42.78l-.91,4.29L32.56,88l.91-4.3a3.77,3.77,0,0,1,.85-1.76A3,3,0,0,1,35.8,81a4.07,4.07,0,0,1,1.84,0,3.73,3.73,0,0,1,1.63.76,2.81,2.81,0,0,1,.92,1.4,4,4,0,0,1,0,2l-.92,4.29Z" transform="translate(-0.41 -0.21)"/><path class="cls-1" d="M28.43,86.41l2.74-7.29,2.28.85-2.73,7.3Z" transform="translate(-0.41 -0.21)"/><path class="cls-1" d="M24.75,84.73,26,79.27l-4,3.89L19.7,81.88l6.1-5.5,2.75,1.55L27,86Z" transform="translate(-0.41 -0.21)"/><path class="cls-1" d="M18.89,72.49l1.94,1.73,1.07-.62,1.91,1.71-7.32,3.9-2.1-1.88,3.08-7.7,1.92,1.72Zm-.78,1.76-.92,2.08,2-1.14Z" transform="translate(-0.41 -0.21)"/><path class="cls-1" d="M13,63.38l1.42,2-1.68,4.39L16,67.47l1.42,2L11.05,74,9.63,72l1.73-4.42L8.13,69.9l-1.43-2Z" transform="translate(-0.41 -0.21)"/><path class="cls-1" d="M3.12,60.3l1.77-.8.85,1.89L11.07,59l1,2.22L6.74,63.62l.84,1.86-1.77.8Z" transform="translate(-0.41 -0.21)"/><path class="cls-1" d="M1.17,52.65l1.15-1L3,52.77l.11-1.27L4.6,52l-.73,1.13,1.2-.57.31,1.5L4.06,54l1.13.72L4,55.84l-.64-1.12L3.23,56l-1.45-.45.69-1.18L1.25,55,.93,53.42l1.35,0Z" transform="translate(-0.41 -0.21)"/><path class="cls-1" d="M7.29,41.81a2.3,2.3,0,0,1,.83,1,3.64,3.64,0,0,1,.29,1.57,3.79,3.79,0,0,1-.69,2.3,2.42,2.42,0,0,1-1.94.95l0-2.6c.44,0,.67-.22.68-.58a.44.44,0,0,0-.1-.3.34.34,0,0,0-.28-.12.47.47,0,0,0-.44.27,5.35,5.35,0,0,0-.38.9,8.74,8.74,0,0,1-.52,1.22,2.51,2.51,0,0,1-.76.84,2.09,2.09,0,0,1-1.29.34,2.05,2.05,0,0,1-1.29-.41,2.38,2.38,0,0,1-.79-1.08A3.9,3.9,0,0,1,.41,44.6a3.49,3.49,0,0,1,.68-2.21A2.48,2.48,0,0,1,3,41.52l0,2.63c-.42,0-.62.2-.63.5a.37.37,0,0,0,.09.25.36.36,0,0,0,.28.1.45.45,0,0,0,.42-.27,5.68,5.68,0,0,0,.38-.87A9.3,9.3,0,0,1,4,42.63a2.66,2.66,0,0,1,.77-.84,2.11,2.11,0,0,1,1.29-.35A2.21,2.21,0,0,1,7.29,41.81Z" transform="translate(-0.41 -0.21)"/><path class="cls-1" d="M1.23,37l4.3.87a1.33,1.33,0,0,0,.88-.07.88.88,0,0,0,.46-.68.94.94,0,0,0-.15-.83,1.31,1.31,0,0,0-.79-.42L1.63,35l.48-2.38,4.3.87a3.56,3.56,0,0,1,1.77.83,2.85,2.85,0,0,1,.91,1.47,4.07,4.07,0,0,1,0,1.84,3.79,3.79,0,0,1-.73,1.64A2.86,2.86,0,0,1,7,40.24a4,4,0,0,1-1.95,0l-4.3-.87Z" transform="translate(-0.41 -0.21)"/><path class="cls-1" d="M3.63,28.53,11,31.19l-.83,2.29L2.79,30.83Z" transform="translate(-0.41 -0.21)"/><path class="cls-1" d="M5.29,24.8,10.75,26,6.83,22l1.25-2.27,5.56,6.05-1.52,2.76L4,27.07Z" transform="translate(-0.41 -0.21)"/><path class="cls-1" d="M17.45,18.84l-1.71,1.95.63,1.06-1.69,1.93-4-7.27,1.86-2.12,7.73,3-1.7,1.93Zm-1.77-.77-2.09-.9,1.16,2Z" transform="translate(-0.41 -0.21)"/><path class="cls-1" d="M26.5,12.89l-2,1.44-4.4-1.63,2.31,3.16-2,1.44L15.87,11l2-1.44,4.44,1.69L19.93,8l2-1.44Z" transform="translate(-0.41 -0.21)"/><path class="cls-1" d="M29.47,2.94l.81,1.76-1.87.87,2.46,5.31-2.22,1L26.19,6.59l-1.86.86L23.52,5.7Z" transform="translate(-0.41 -0.21)"/><path class="cls-1" d="M39.08,1.56l1,1.14L39,3.35l1.27.1L39.77,5l-1.14-.72.58,1.19-1.5.33,0-1.33L37,5.6,35.92,4.39,37,3.74l-1.25-.08.43-1.46,1.19.67-.62-1.2,1.53-.34,0,1.35Z" transform="translate(-0.41 -0.21)"/></svg>