<?xml version="1.0" encoding="utf-8"?>
<!-- Generator: Adobe Illustrator 23.0.3, SVG Export Plug-In . SVG Version: 6.00 Build 0)  -->
<svg version="1.1" id="Calque_1" xmlns="http://www.w3.org/2000/svg" xmlns:xlink="http://www.w3.org/1999/xlink" x="0px" y="0px"
	 viewBox="0 0 90.5 90.5" style="enable-background:new 0 0 90.5 90.5;" xml:space="preserve">
<style type="text/css">
	.st0{fill:#FFFFFF;}
</style>
<g>
	<path class="st0" d="M50,7.4l-0.3,2.4l-2.3-0.3l1-7.4l3.2,0.5c0.9,0.1,1.6,0.5,2,1c0.4,0.5,0.6,1.2,0.5,2c-0.1,0.5-0.2,0.9-0.5,1.2
		C53.3,7,53,7.2,52.5,7.4s-1,0.2-1.6,0.1L50,7.4z M51.8,5.1c0.1-0.5-0.1-0.7-0.6-0.8l-0.7-0.1l-0.2,1.4l0.7,0.1
		C51.4,5.7,51.7,5.5,51.8,5.1z"/>
	<path class="st0" d="M57.4,11.6l-0.5-3l-0.9,2.5l-2.2-0.8l2.4-7.1l3.3,1.1c0.6,0.2,1,0.5,1.4,0.8c0.3,0.3,0.5,0.7,0.6,1.1
		c0.1,0.4,0.1,0.9-0.1,1.3c-0.2,0.5-0.4,0.9-0.8,1.1c-0.4,0.3-0.9,0.4-1.4,0.4l0.6,3.2L57.4,11.6z M57.4,7.1l0.9,0.3
		c0.2,0.1,0.4,0.1,0.5,0s0.2-0.2,0.3-0.4c0.1-0.2,0.1-0.4,0-0.5c-0.1-0.1-0.2-0.3-0.4-0.3l-0.9-0.3L57.4,7.1z"/>
	<path class="st0" d="M65,8.9l-0.4,0.8l2,1.1l-0.9,1.5l-2-1.1l-0.5,0.9l2.3,1.3l-0.9,1.6l-4.4-2.4l3.6-6.6l4.4,2.4l-0.9,1.6L65,8.9z
		 M67.9,6.8L65,6.3l0.8-1.4l3,0.3L67.9,6.8z"/>
	<path class="st0" d="M73.7,13.1c0.2,0.5,0.3,1,0.3,1.6c0,0.5-0.2,1.1-0.5,1.6l-1.9-1.6c0.1-0.3,0.1-0.5,0-0.8
		c-0.1-0.2-0.2-0.4-0.4-0.6c-0.3-0.3-0.6-0.3-1-0.3c-0.4,0.1-0.7,0.3-1,0.7c-0.3,0.4-0.5,0.8-0.5,1.1c0,0.4,0.1,0.7,0.4,0.9
		c0.2,0.2,0.4,0.3,0.7,0.3c0.2,0,0.5,0,0.7-0.1l1.9,1.6c-0.5,0.4-1,0.7-1.5,0.8c-0.5,0.1-1.1,0.1-1.6,0s-1.1-0.4-1.6-0.8
		c-0.6-0.5-1-1-1.2-1.6c-0.2-0.6-0.3-1.2-0.1-1.9c0.1-0.6,0.4-1.2,0.9-1.8s1-1,1.6-1.2c0.6-0.3,1.2-0.3,1.9-0.2
		c0.6,0.1,1.2,0.4,1.8,0.9C73.1,12.1,73.5,12.6,73.7,13.1z"/>
	<path class="st0" d="M76.7,18.5L76,19.1l1.5,1.8L76.2,22l-1.5-1.8l-0.8,0.7l1.7,2l-1.4,1.2l-3.2-3.8l5.7-4.8l3.2,3.8l-1.4,1.2
		L76.7,18.5z M80.2,17.6l-2.5-1.5l1.2-1l2.7,1.3L80.2,17.6z"/>
	<path class="st0" d="M79.3,29.3c-0.7,0-1.3-0.2-1.8-0.5S76.4,28,76,27.3l-1.5-2.7l6.5-3.7l1.5,2.7c0.4,0.7,0.6,1.4,0.6,2
		c0,0.7-0.1,1.3-0.5,1.8s-0.8,1-1.4,1.4C80.6,29.2,80,29.3,79.3,29.3z M78.8,26.9c0.4,0.1,0.8,0.1,1.3-0.2c0.5-0.3,0.7-0.6,0.8-1
		c0.1-0.4,0-0.8-0.2-1.3l-0.3-0.5l-2.9,1.6l0.3,0.5C78,26.5,78.4,26.8,78.8,26.9z"/>
	<path class="st0" d="M84.2,31.6l-0.9,0.3l0.8,2.2l-1.7,0.6l-0.8-2.2l-1,0.3l0.9,2.5l-1.8,0.6l-1.6-4.7l7.1-2.4l1.6,4.7L85,34.1
		L84.2,31.6z"/>
	<path class="st0" d="M80.9,43.6l-0.3-2.3l3.4-3l-3.7,0.5l-0.3-2.3l7.4-1.1l0.3,2.3l-3.4,3l3.8-0.5l0.3,2.3L80.9,43.6z"/>
	<path class="st0" d="M88,50.6l-1.9-0.1l0.1-2l-5.6-0.3l0.1-2.3l5.6,0.3l0.1-2l1.9,0.1L88,50.6z"/>
	<path class="st0" d="M84,63.8l-1.5,0.1l0.1-1.2l-0.8,0.9L81,62.4l1.2-0.5l-1.3-0.2l0.6-1.3l1,0.8l-0.5-1.2l1.6-0.2l-0.1,1.2
		l0.8-0.9l0.9,1.2L84,61.7l1.3,0.2l-0.6,1.4l-1-0.8L84,63.8z"/>
	<path class="st0" d="M73.8,70l-1.8-1.6l1.6-1.7l5.6,5L77,74.1c-0.6,0.7-1.3,1.1-1.9,1.1s-1.3-0.2-1.9-0.7c-0.4-0.3-0.6-0.7-0.7-1.1
		c-0.1-0.4-0.2-0.9,0-1.3c0.1-0.5,0.4-0.9,0.8-1.4L73.8,70z M74.8,72.7c0.3,0.3,0.7,0.3,1-0.1l0.4-0.5l-1-0.9l-0.4,0.5
		C74.4,72,74.5,72.4,74.8,72.7z"/>
	<path class="st0" d="M66.2,73.7L69,75l-1.6-2.1l1.9-1.4l4.6,6L71,79.5c-0.5,0.4-1,0.6-1.4,0.7s-0.9,0.1-1.3-0.1
		c-0.4-0.2-0.7-0.4-1-0.8c-0.3-0.4-0.5-0.8-0.5-1.3c0-0.5,0.1-0.9,0.4-1.4l-3-1.3L66.2,73.7z M69.9,76.2l-0.7,0.6
		c-0.2,0.1-0.3,0.3-0.3,0.4c0,0.2,0,0.3,0.2,0.5c0.1,0.2,0.3,0.2,0.4,0.3c0.2,0,0.3,0,0.5-0.2l0.7-0.6L69.9,76.2z"/>
	<path class="st0" d="M64.3,81.6l-0.4-0.8l-2.1,1.1L61,80.2l2.1-1.1l-0.5-0.9l-2.3,1.2l-0.9-1.7l4.4-2.3l3.5,6.6l-4.4,2.3l-0.9-1.7
		L64.3,81.6z M64.4,85.2l2-2.1l0.7,1.4l-1.9,2.3L64.4,85.2z"/>
	<path class="st0" d="M55.9,86.5c-0.6-0.1-1.1-0.3-1.5-0.6c-0.4-0.3-0.8-0.8-1.1-1.3l2.4-0.7c0.2,0.2,0.4,0.3,0.6,0.4s0.5,0.1,0.7,0
		c0.4-0.1,0.6-0.3,0.8-0.7c0.1-0.3,0.1-0.8,0-1.2c-0.1-0.5-0.4-0.8-0.7-1c-0.3-0.2-0.6-0.3-1-0.2c-0.3,0.1-0.5,0.2-0.6,0.4
		c-0.2,0.2-0.3,0.4-0.3,0.7l-2.4,0.7c-0.1-0.6,0-1.2,0.2-1.7c0.2-0.5,0.5-1,0.9-1.3c0.4-0.4,0.9-0.7,1.6-0.9c0.7-0.2,1.4-0.3,2-0.1
		s1.2,0.5,1.6,0.9c0.5,0.5,0.8,1.1,1,1.8s0.3,1.4,0.1,2s-0.4,1.2-0.8,1.7c-0.4,0.5-1,0.8-1.7,1C57,86.5,56.5,86.6,55.9,86.5z"/>
	<path class="st0" d="M49.7,86L49.6,85l-2.3,0.2l-0.2-1.8l2.3-0.2l-0.1-1.1l-2.6,0.3l-0.2-1.9l5-0.5l0.8,7.4l-5,0.5l-0.2-1.9
		L49.7,86z M48.6,89.4l2.6-1.3l0.2,1.6l-2.6,1.4L48.6,89.4z"/>
	<path class="st0" d="M39.3,82.1c0.4-0.5,0.8-1,1.5-1.2c0.6-0.3,1.3-0.4,2.1-0.3l3.1,0.2l-0.6,7.5L42.2,88c-0.8-0.1-1.5-0.3-2-0.6
		c-0.6-0.4-1-0.8-1.3-1.4c-0.3-0.6-0.4-1.2-0.3-2C38.7,83.3,38.9,82.6,39.3,82.1z M41.6,82.9c-0.3,0.3-0.5,0.7-0.6,1.2
		c0,0.5,0.1,1,0.4,1.3c0.3,0.3,0.7,0.5,1.2,0.5l0.6,0l0.3-3.3l-0.6,0C42.3,82.6,41.9,82.7,41.6,82.9z"/>
	<path class="st0" d="M34.7,84.8l0.2-0.9l-2.3-0.6l0.5-1.7l2.3,0.6l0.3-1l-2.6-0.7l0.5-1.8l4.8,1.3l-1.9,7.2L31.7,86l0.5-1.8
		L34.7,84.8z"/>
	<path class="st0" d="M26.6,75.5l2.1,1l0.6,4.5l1.6-3.4l2.1,1l-3.3,6.7l-2.1-1l-0.6-4.5l-1.7,3.5l-2.1-1L26.6,75.5z"/>
	<path class="st0" d="M16.8,77.5l1.1-1.5l1.6,1.2l3.4-4.5l1.9,1.4l-3.4,4.5l1.6,1.2l-1.1,1.5L16.8,77.5z"/>
	<path class="st0" d="M9.2,68.6l0.6-1.3l1,0.7l-0.4-1.2l1.5-0.1L11.7,68l0.8-1l0.8,1.2l-1.2,0.5l1.3,0.2l-0.7,1.4l-1-0.7l0.4,1.1
		l-1.5,0.2l0.2-1.3l-0.8,1l-0.9-1.2l1.2-0.5L9.2,68.6z"/>
	<path class="st0" d="M9.1,56.7l2.3-0.7l0.7,2.2l-7.2,2.2l-1-3.1c-0.3-0.9-0.3-1.6,0.1-2.2c0.3-0.6,0.8-1,1.6-1.3
		c0.5-0.1,0.9-0.2,1.3-0.1s0.8,0.3,1.2,0.7c0.3,0.3,0.6,0.8,0.8,1.4L9.1,56.7z M6.3,56.1c-0.4,0.1-0.6,0.4-0.4,0.9L6,57.6l1.3-0.4
		l-0.2-0.6C7,56.1,6.7,55.9,6.3,56.1z"/>
	<path class="st0" d="M9.8,48.2l-2.5,1.7l2.7-0.3l0.3,2.3l-7.4,0.8l-0.4-3.5c-0.1-0.6,0-1.1,0.2-1.6s0.4-0.8,0.8-1.1
		c0.3-0.3,0.7-0.4,1.2-0.5c0.5-0.1,1,0,1.4,0.3s0.7,0.6,1,1.1l2.7-1.9L9.8,48.2z M5.7,50.1l-0.1-0.9c0-0.2-0.1-0.4-0.2-0.5
		c-0.1-0.1-0.3-0.1-0.5-0.1c-0.2,0-0.3,0.1-0.4,0.2s-0.1,0.3-0.1,0.5l0.1,0.9L5.7,50.1z"/>
	<path class="st0" d="M1,40.8l0.8,2.8l-1.6-0.1l-1-2.8L1,40.8z M4.1,42.5l0.9,0.1l0.1-2.3L7,40.3l-0.1,2.3l1.1,0.1L8,40.1l1.9,0.1
		l-0.3,5l-7.5-0.5l0.3-5l1.9,0.1L4.1,42.5z"/>
	<path class="st0" d="M4.2,32.8c0.4-0.4,0.8-0.8,1.3-1c0.5-0.2,1.1-0.3,1.7-0.2L6.6,34c-0.3,0-0.5,0.2-0.7,0.3
		c-0.2,0.2-0.3,0.4-0.4,0.6c-0.1,0.4,0,0.7,0.2,1s0.6,0.5,1.1,0.6c0.5,0.1,0.9,0.1,1.2,0c0.3-0.1,0.6-0.4,0.7-0.8
		c0.1-0.3,0.1-0.5,0-0.7c-0.1-0.2-0.2-0.4-0.4-0.6L8.9,32c0.5,0.2,1,0.6,1.4,1c0.4,0.4,0.6,0.9,0.7,1.5c0.1,0.6,0.1,1.1-0.1,1.8
		c-0.2,0.7-0.5,1.3-0.9,1.8c-0.4,0.5-1,0.8-1.6,0.9c-0.6,0.1-1.3,0.1-2,0c-0.7-0.2-1.3-0.5-1.8-0.9s-0.8-1-1-1.6
		c-0.2-0.6-0.2-1.3,0-2C3.6,33.8,3.9,33.2,4.2,32.8z"/>
	<path class="st0" d="M5.5,25l-0.3,2.9l-1.4-0.7l0.1-3L5.5,25z M7.9,27.7l0.8,0.4l1-2.1l1.6,0.7l-1,2.1l1,0.4l1.1-2.4l1.7,0.8
		L12,32.2l-6.8-3.2l2.1-4.5L9,25.3L7.9,27.7z"/>
	<path class="st0" d="M16.6,20.8c0.3,0.6,0.4,1.2,0.3,1.9c-0.1,0.7-0.3,1.3-0.8,2l-1.8,2.5l-6.1-4.3l1.8-2.5c0.5-0.6,1-1.1,1.6-1.4
		c0.6-0.3,1.2-0.4,1.9-0.3c0.6,0.1,1.3,0.3,1.8,0.7C15.9,19.7,16.3,20.2,16.6,20.8z M14.6,22.3c-0.1-0.4-0.3-0.8-0.7-1.1
		s-0.9-0.4-1.3-0.3c-0.4,0.1-0.8,0.3-1.1,0.8l-0.3,0.5l2.7,1.9l0.3-0.5C14.6,23.2,14.7,22.8,14.6,22.3z"/>
	<path class="st0" d="M16.6,15.5l0.6,0.7l1.7-1.6l1.2,1.3l-1.7,1.6l0.7,0.8l1.9-1.8l1.3,1.3l-3.6,3.5l-5.2-5.4l3.6-3.5l1.3,1.3
		L16.6,15.5z"/>
	<path class="st0" d="M28.8,13.3l-2,1.3l-4.1-1.8l2.1,3.1l-2,1.3L18.6,11l2-1.3l4.2,1.8l-2.1-3.2l2-1.3L28.8,13.3z"/>
	<path class="st0" d="M32.1,3.9l0.7,1.7L31,6.4l2.1,5.2l-2.2,0.9l-2.1-5.2L27,8l-0.7-1.7L32.1,3.9z"/>
	<path class="st0" d="M41.6,2.1l0.9,1.2l-1.1,0.5L42.5,4l-0.6,1.4l-1-0.8l0.4,1.2L39.9,6L40,4.8l-0.8,1l-0.9-1.3L39.4,4l-1.2-0.2
		l0.6-1.4l1.1,0.8L39.4,2l1.5-0.2l-0.2,1.3L41.6,2.1z"/>
</g>
</svg>
