<?xml version="1.0" encoding="utf-8"?>
<!-- Generator: Adobe Illustrator 23.0.3, SVG Export Plug-In . SVG Version: 6.00 Build 0)  -->
<svg version="1.1" id="Calque_1" xmlns="http://www.w3.org/2000/svg" xmlns:xlink="http://www.w3.org/1999/xlink" x="0px" y="0px"
	 viewBox="0 0 90.7 90.7" style="enable-background:new 0 0 90.7 90.7;" xml:space="preserve">
<style type="text/css">
	.st0{fill-rule:evenodd;clip-rule:evenodd;fill:#FFFFFF;}
	.st1{fill:#FFFFFF;}
</style>
<path id="sCROLL_DOWN_SCROLL_DOWN_D" class="st0" d="M35.8,8.8c2.6-0.6,3.9-1.9,3.5-3.5C39,4,38.1,3.6,36,3.9l-1.8,0.3
	c-0.7,0.1-0.9,0-1-0.2c-0.1-0.3,0.3-0.6,1.1-0.8c1-0.3,2-0.2,3,0.2l1-1.8c-1.4-0.4-2.9-0.5-4.3-0.1c-2.4,0.6-3.6,1.8-3.3,3.2
	c0.3,1.3,1.3,1.8,3.2,1.5l2.1-0.3c0.6-0.1,0.8,0,0.9,0.2c0.1,0.4-0.3,0.7-1.4,0.9c-1.1,0.3-2.2,0.1-3.2-0.4l-1.3,1.8
	C32.6,9.2,34.3,9.3,35.8,8.8z M45.5,7.6c2.4,0,4.1-0.9,4.7-2.6l-2.6-0.6c-0.2,0.8-1.1,1.4-1.9,1.3c-1,0.1-1.9-0.6-2.1-1.6
	c0-0.1,0-0.2,0-0.3c0-1,0.8-1.9,1.8-1.9c0.1,0,0.2,0,0.3,0c0.9-0.1,1.7,0.4,1.9,1.3l2.7-0.5C49.7,1,47.9,0,45.6,0
	c-2.8,0-4.8,1.6-4.8,3.8C40.8,6.1,42.6,7.6,45.5,7.6L45.5,7.6z M56.9,9.1l2.7,0.7l-1-3c1-0.1,1.8-0.8,2-1.7c0.3-1.1-0.1-2.4-2.4-3.1
	l-4.8-1.3l-1.9,6.8L54,8.3l0.6-2.2L56,6.5L56.9,9.1z M55.4,3.1l1.8,0.5c0.8,0.2,0.9,0.6,0.8,1c-0.1,0.4-0.4,0.7-1.3,0.5L55,4.6
	L55.4,3.1z M64.4,12.8c2.5,1.5,4.9,1.2,6.1-0.9s0.3-4.2-2.2-5.7S63.3,5,62.1,7.1S61.8,11.3,64.4,12.8L64.4,12.8z M65.3,11.2
	c-0.9-0.6-1.1-1.8-0.5-2.7c0.6-0.9,1.8-1.1,2.7-0.5c0.8,0.6,1.1,1.7,0.6,2.6c-0.5,0.9-1.7,1.3-2.6,0.7
	C65.4,11.2,65.4,11.2,65.3,11.2L65.3,11.2z M69.6,16l5,4.9l1.4-1.4l-3.2-3.1l3.6-3.7l-1.8-1.8L69.6,16z M75.5,22.1l3.8,5.9l1.7-1.1
	l-2.4-3.8l4.3-2.8l-1.4-2.2L75.5,22.1z M81.2,32.2l1.1,4.6c0.6,2.5,2.5,3.8,4.6,3.3s2.9-2.4,2.3-5l-1.2-4.6L81.2,32.2z M83.4,34.3
	l3.7-0.9l0.4,1.7c0.3,0.9-0.1,1.9-1,2.3c-0.1,0-0.2,0.1-0.3,0.1c-1,0.3-2-0.2-2.3-1.2c0-0.1-0.1-0.2-0.1-0.3L83.4,34.3z M83.1,46.9
	c-0.1,2.9,1.3,4.9,3.6,5s3.9-1.7,4-4.7s-1.3-4.9-3.6-5S83.2,43.9,83.1,46.9L83.1,46.9z M84.9,47c0.1-1.1,1.1-1.8,2.2-1.7
	c1.1,0.1,1.8,1.1,1.7,2.2c-0.1,1-1,1.8-2,1.7c-1.1,0-1.9-0.9-1.9-2C84.9,47.1,84.9,47,84.9,47L84.9,47z M82.5,54.4l-1,2.7l3.3,2.7
	c0.2,0.1,0.4,0.3,0.6,0.4l0,0c-0.2-0.1-0.5-0.1-0.7-0.1L80.4,60l-1,2.7l5.8,4.7l0.9-2.4l-3.3-2.5c-0.2-0.2-0.4-0.3-0.7-0.4l0,0
	c0.3,0.1,0.5,0.1,0.8,0.1l4.2,0.1l0.9-2.5l-3.3-2.7c-0.2-0.2-0.4-0.3-0.6-0.5l0,0c0.3,0.1,0.5,0.1,0.8,0.1l4.1,0.3l0.9-2.4
	L82.5,54.4z M77.5,66l-1.5,1.8l2.4,2l0.8,0.7l0,0c-0.4-0.1-0.7-0.1-1.1-0.1l-4.5,0.3l-1.6,1.9l5.5,4.5l1.5-1.8l-2.4-1.9l-0.9-0.7
	l0,0c0.3,0.1,0.7,0.1,1.1,0.1l4.4-0.2l1.7-2.1L77.5,66z M66.8,82.8l1.3,1l0.6-1.5l0.3,1.4l1.5-1l-1.2-0.9L71,82l-0.4-1.6l-1.3,0.8
	l0.6-1.5l-1.7,0l0.3,1.6l-1.3-1l-0.7,1.6l1.7,0.1L66.8,82.8z M55.5,81.7c-2.6,0.7-3.8,2.1-3.4,3.7c0.4,1.3,1.3,1.6,3.3,1.3l1.8-0.3
	c0.7-0.1,0.9-0.1,1,0.2c0.1,0.3-0.3,0.6-1.1,0.8c-1,0.3-2,0.3-3-0.1l-0.9,1.8c1.4,0.4,2.9,0.4,4.3-0.1c2.4-0.7,3.6-1.9,3.2-3.3
	c-0.4-1.3-1.4-1.7-3.2-1.4l-2.1,0.3c-0.6,0.1-0.8,0.1-0.9-0.2c-0.1-0.4,0.3-0.7,1.3-1c1.1-0.3,2.2-0.2,3.2,0.3l1.2-1.8
	C58.8,81.3,57.1,81.2,55.5,81.7L55.5,81.7z M45.9,83.1c-2.4,0-4.1,1-4.6,2.7l2.6,0.5c0.2-0.9,1-1.4,1.9-1.3c1-0.1,2,0.6,2.1,1.7
	c0.1,1-0.6,2-1.7,2.1c-0.1,0-0.2,0-0.4,0c-0.9,0.1-1.7-0.4-1.9-1.2l-2.7,0.5c0.5,1.6,2.3,2.6,4.6,2.6c2.8,0,4.8-1.7,4.7-3.9
	C50.7,84.5,48.8,83.1,45.9,83.1L45.9,83.1z M34.5,81.8l-2.7-0.7l1,3c-1,0.1-1.7,0.8-2,1.7c-0.3,1.1,0.1,2.4,2.5,3l4.8,1.2l1.7-6.9
	l-2.5-0.6l-0.6,2.3l-1.4-0.4L34.5,81.8z M36.1,87.9l-1.8-0.4c-0.8-0.2-0.9-0.6-0.8-1c0.1-0.5,0.6-0.7,1-0.6c0.1,0,0.1,0,0.2,0.1
	l1.8,0.4L36.1,87.9z M26.9,78.3c-2.6-1.4-4.9-1.1-6.1,1s-0.2,4.2,2.3,5.7s4.9,1.1,6.1-1S29.5,79.8,26.9,78.3L26.9,78.3z M26,79.9
	c0.9,0.6,1.1,1.8,0.5,2.7c-0.6,0.9-1.8,1.1-2.7,0.5c-0.8-0.6-1.1-1.7-0.6-2.6c0.5-0.9,1.7-1.3,2.6-0.8C25.9,79.9,25.9,79.9,26,79.9
	L26,79.9z M21.6,75.2l-5.1-4.8l-1.3,1.4l3.3,3.1l-3.5,3.7l1.9,1.8L21.6,75.2z M15.6,69.2l-3.9-5.8L10,64.5l2.5,3.7l-4.3,2.9l1.4,2.1
	L15.6,69.2z M9.6,59.3l-1.1-4.6c-0.6-2.5-2.5-3.8-4.6-3.3c-2.1,0.5-2.9,2.4-2.3,5L2.8,61L9.6,59.3z M7.4,57.2l-3.7,0.9l-0.4-1.7
	c-0.3-0.9,0.1-1.9,1-2.3C4.4,54,4.5,54,4.6,54c1-0.3,2,0.2,2.3,1.2C7,55.3,7,55.4,7,55.5L7.4,57.2z M7.6,44.6
	c0.1-2.9-1.4-4.8-3.7-4.9S0.1,41.5,0,44.4s1.4,4.8,3.7,4.9S7.5,47.5,7.6,44.6L7.6,44.6z M5.7,44.5c-0.1,1.1-1.1,1.9-2.1,1.7
	c-1.1-0.1-1.9-1.1-1.7-2.1c0.1-1,1-1.8,2-1.8c1.1,0,1.9,0.9,1.9,1.9C5.8,44.4,5.7,44.4,5.7,44.5L5.7,44.5z M8,37l0.9-2.7l-3.3-2.6
	c-0.2-0.1-0.4-0.3-0.6-0.4l0,0c0.2,0.1,0.5,0.1,0.7,0.1l4.2,0l0.9-2.7L5,24.1l-0.8,2.4l3.4,2.4C7.8,29,8,29.2,8.2,29.3l0,0
	c-0.3-0.1-0.5-0.1-0.8-0.1l-4.2,0l-0.9,2.5l3.3,2.6c0.2,0.2,0.4,0.3,0.7,0.4l0,0c-0.2-0.1-0.5-0.1-0.8-0.1l-4.2-0.2L0.5,37L8,37z
	 M12.8,25.4l1.4-1.8l-2.5-1.9l-0.9-0.7l0,0C11.2,21,11.6,21,12,21l4.5-0.4l1.5-2l-5.6-4.4L11,16.1l2.4,1.9l0.9,0.7l0,0
	c-0.3-0.1-0.7-0.1-1.1-0.1l-4.4,0.3L7.2,21L12.8,25.4z M23.2,8.4l-1.3-1l-0.6,1.5l-0.3-1.4l-1.5,1l1.2,0.9l-1.6,0l0.4,1.6l1.3-0.8
	l-0.6,1.5l1.7,0l-0.3-1.6l1.3,0.9l0.6-1.6l-1.7,0L23.2,8.4z"/>
<g>
	<path class="st1" d="M17,37.7h1v7.2h3.5v0.9H17V37.7z"/>
	<path class="st1" d="M27.7,42.8c0,2.1-1.5,3.1-2.9,3.1c-1.6,0-2.8-1.2-2.8-3c0-1.9,1.3-3.1,2.9-3.1C26.5,39.8,27.7,41,27.7,42.8z
		 M23.1,42.8c0,1.3,0.7,2.2,1.8,2.2c1,0,1.8-0.9,1.8-2.3c0-1-0.5-2.2-1.7-2.2C23.6,40.6,23.1,41.7,23.1,42.8z"/>
	<path class="st1" d="M29,41.7c0-0.7,0-1.3,0-1.8h0.9l0,1.1h0c0.3-0.8,0.9-1.3,1.6-1.3c0.1,0,0.2,0,0.3,0v1c-0.1,0-0.2,0-0.4,0
		c-0.7,0-1.3,0.6-1.4,1.4c0,0.1,0,0.3,0,0.5v3.1h-1V41.7z"/>
	<path class="st1" d="M33.4,43c0,1.4,0.9,2,2,2c0.8,0,1.2-0.1,1.6-0.3l0.2,0.8c-0.4,0.2-1,0.4-1.9,0.4c-1.8,0-2.9-1.2-2.9-2.9
		s1-3.1,2.7-3.1c1.9,0,2.4,1.7,2.4,2.7c0,0.2,0,0.4,0,0.5H33.4z M36.5,42.3c0-0.7-0.3-1.7-1.5-1.7c-1.1,0-1.5,1-1.6,1.7H36.5z"/>
	<path class="st1" d="M38.8,41.5c0-0.6,0-1.1,0-1.6h0.9l0,0.9h0c0.3-0.6,0.9-1.1,1.8-1.1c0.8,0,1.4,0.5,1.6,1.2h0
		c0.2-0.3,0.4-0.6,0.6-0.8c0.3-0.3,0.7-0.4,1.3-0.4c0.8,0,1.9,0.5,1.9,2.5v3.4h-1v-3.3c0-1.1-0.4-1.8-1.3-1.8c-0.6,0-1.1,0.4-1.2,1
		c0,0.1-0.1,0.3-0.1,0.5v3.6h-1v-3.5c0-0.9-0.4-1.6-1.2-1.6c-0.7,0-1.1,0.5-1.3,1.1c-0.1,0.2-0.1,0.3-0.1,0.5v3.5h-1V41.5z"/>
	<path class="st1" d="M52.6,38.3c0,0.4-0.3,0.6-0.7,0.6c-0.4,0-0.6-0.3-0.6-0.6c0-0.4,0.3-0.7,0.7-0.7
		C52.3,37.6,52.6,37.9,52.6,38.3z M51.4,45.7v-5.8h1.1v5.8H51.4z"/>
	<path class="st1" d="M54.2,41.8c0-0.7,0-1.3,0-1.9h0.9l0,1h0c0.4-0.7,1.1-1.1,2.1-1.1c1.4,0,2.5,1.2,2.5,3c0,2.1-1.3,3.1-2.6,3.1
		c-0.8,0-1.4-0.3-1.8-0.9h0v3.2h-1V41.8z M55.2,43.4c0,0.2,0,0.3,0,0.4c0.2,0.7,0.8,1.2,1.6,1.2c1.1,0,1.8-0.9,1.8-2.2
		c0-1.2-0.6-2.2-1.7-2.2c-0.7,0-1.4,0.5-1.6,1.3c0,0.1-0.1,0.3-0.1,0.4V43.4z"/>
	<path class="st1" d="M60.9,44.7c0.3,0.2,0.9,0.4,1.4,0.4c0.8,0,1.1-0.4,1.1-0.9c0-0.5-0.3-0.8-1.1-1.1c-1-0.4-1.5-0.9-1.5-1.6
		c0-0.9,0.8-1.7,2-1.7c0.6,0,1.1,0.2,1.4,0.4l-0.3,0.8c-0.2-0.1-0.6-0.3-1.2-0.3c-0.6,0-1,0.4-1,0.8c0,0.5,0.3,0.7,1.1,1
		c1,0.4,1.5,0.9,1.5,1.8c0,1-0.8,1.7-2.2,1.7c-0.6,0-1.2-0.2-1.6-0.4L60.9,44.7z"/>
	<path class="st1" d="M70.6,44.2c0,0.6,0,1.1,0,1.6h-0.9l-0.1-0.9h0c-0.3,0.5-0.9,1.1-1.9,1.1c-0.9,0-2-0.5-2-2.5v-3.4h1.1v3.2
		c0,1.1,0.3,1.8,1.3,1.8c0.7,0,1.2-0.5,1.4-1c0.1-0.2,0.1-0.3,0.1-0.5v-3.6h1.1V44.2z"/>
	<path class="st1" d="M72.4,41.5c0-0.6,0-1.1,0-1.6h0.9l0,0.9h0c0.3-0.6,0.9-1.1,1.8-1.1c0.8,0,1.4,0.5,1.6,1.2h0
		c0.2-0.3,0.4-0.6,0.6-0.8c0.3-0.3,0.7-0.4,1.3-0.4c0.8,0,1.9,0.5,1.9,2.5v3.4h-1v-3.3c0-1.1-0.4-1.8-1.3-1.8c-0.6,0-1.1,0.4-1.2,1
		c0,0.1-0.1,0.3-0.1,0.5v3.6h-1v-3.5c0-0.9-0.4-1.6-1.2-1.6c-0.7,0-1.1,0.5-1.3,1.1c-0.1,0.2-0.1,0.3-0.1,0.5v3.5h-1V41.5z"/>
</g>
</svg>
