<?xml version="1.0" encoding="utf-8"?>
<!-- Generator: Adobe Illustrator 23.0.3, SVG Export Plug-In . SVG Version: 6.00 Build 0)  -->
<svg version="1.1" id="Calque_1" xmlns="http://www.w3.org/2000/svg" xmlns:xlink="http://www.w3.org/1999/xlink" x="0px" y="0px"
	 viewBox="0 0 90.5 90.4" style="enable-background:new 0 0 90.5 90.4;" xml:space="preserve">
<style type="text/css">
	.st0{fill:#FFFFFF;}
</style>
<g>
	<path class="st0" d="M6.2,65.3c0-0.6,0.1-1.2,0.3-1.7c0.3-0.5,0.6-1,1.1-1.4L9,64.5c-0.2,0.2-0.3,0.5-0.3,0.8c0,0.3,0,0.5,0.2,0.8
		c0.2,0.4,0.5,0.6,0.9,0.7c0.4,0.1,0.8,0,1.3-0.3c0.5-0.3,0.8-0.6,1-1c0.2-0.4,0.1-0.8-0.1-1.1c-0.1-0.3-0.3-0.4-0.6-0.6
		c-0.2-0.1-0.5-0.2-0.8-0.1l-1.3-2.4c0.6-0.2,1.2-0.3,1.8-0.2c0.6,0.1,1.1,0.3,1.6,0.6c0.5,0.4,0.9,0.8,1.3,1.5
		c0.4,0.7,0.6,1.4,0.6,2.1c0,0.7-0.2,1.4-0.6,1.9c-0.4,0.6-0.9,1.1-1.6,1.5c-0.7,0.4-1.4,0.6-2.1,0.6c-0.7,0-1.4-0.1-2-0.5
		c-0.6-0.4-1.1-0.9-1.5-1.6C6.4,66.5,6.3,65.9,6.2,65.3z"/>
	<path class="st0" d="M1.9,54.2l7.9-2.3l0.7,2.5l-3.1,0.9l0.7,2.3l3.1-0.9l0.7,2.5L4,61.4L3.3,59l2.8-0.8l-0.7-2.3l-2.8,0.8
		L1.9,54.2z"/>
	<path class="st0" d="M8.2,46l0.1,2.7l1.3,0.3l0.1,2.7l-8.3-2.6l-0.1-3l8-3.3l0.1,2.7L8.2,46z M6.3,46.7l-2.2,0.8l2.3,0.6L6.3,46.7z
		"/>
	<path class="st0" d="M10.2,38.7l-3.2,1l2.9,0.5l-0.5,2.5l-8-1.4l0.7-3.7c0.1-0.7,0.3-1.2,0.6-1.6C3,35.5,3.4,35.2,3.8,35
		c0.4-0.2,0.9-0.2,1.4-0.1c0.5,0.1,1,0.3,1.4,0.7C7,36,7.2,36.5,7.3,37.1l3.4-1.2L10.2,38.7z M5.3,39.4l0.2-1c0-0.2,0-0.4-0.1-0.6
		c-0.1-0.1-0.2-0.2-0.5-0.3c-0.2,0-0.4,0-0.5,0.1c-0.1,0.1-0.2,0.3-0.3,0.5l-0.2,1L5.3,39.4z"/>
	<path class="st0" d="M6.4,26.6c0.7-0.4,1.5-0.5,2.4-0.3l-1,2.5c-0.2,0-0.4,0.1-0.5,0.2c-0.2,0.1-0.3,0.3-0.4,0.6
		c-0.2,0.5-0.2,0.9,0,1.2c0.2,0.4,0.5,0.7,1.1,0.9C8.5,32,9,32,9.4,31.8c0.4-0.2,0.7-0.5,1-1.1c0.2-0.5,0.2-1.1-0.1-1.6L9.5,31
		l-1.7-0.7l1.6-3.8l2.4,1c0.4,0.6,0.7,1.2,0.9,2c0.2,0.7,0.1,1.6-0.3,2.4c-0.3,0.8-0.8,1.4-1.3,1.8s-1.2,0.7-1.9,0.8
		c-0.7,0.1-1.4-0.1-2.2-0.4c-0.7-0.3-1.3-0.7-1.8-1.3c-0.5-0.6-0.7-1.2-0.8-1.9c-0.1-0.7,0-1.5,0.4-2.2C5.1,27.7,5.6,27,6.4,26.6z"
		/>
	<path class="st0" d="M10.5,22.3l0.8,0.6l1.4-2.1l1.6,1.1L12.9,24l1,0.6l1.6-2.4l1.7,1.1l-3.1,4.5l-6.8-4.6l3.1-4.5l1.7,1.1
		L10.5,22.3z"/>
	<path class="st0" d="M19.1,10.2l5.5,6l-1.9,1.7l-2.8-3l1.8,3.9l-1.6,1.5l-3.7-2.2l2.8,3l-1.9,1.7l-5.5-6l2.3-2.1l4.6,2.4l-2-4.8
		L19.1,10.2z"/>
	<path class="st0" d="M24.6,9.4l0.5,0.9L27.3,9l0.9,1.7L26,12l0.6,1l2.5-1.4l1,1.8L25.3,16l-4-7.1l4.8-2.7l1,1.8L24.6,9.4z"/>
	<path class="st0" d="M38.1,10.6l-2.4,0.8l-3.8-3.1l1.2,3.9L30.6,13l-2.5-7.8l2.4-0.8l3.8,3.2l-1.3-4l2.4-0.8L38.1,10.6z"/>
	<path class="st0" d="M44.5,1.9l0.2,2l-2.2,0.2l0.6,6.1l-2.6,0.2l-0.6-6.1l-2.1,0.2l-0.2-2L44.5,1.9z"/>
	<path class="st0" d="M53,4.8l-0.2,1l2.5,0.5l-0.4,1.9l-2.5-0.5l-0.2,1.1L55,9.4l-0.4,2l-5.3-1l1.6-8l5.3,1l-0.4,2L53,4.8z"/>
	<path class="st0" d="M62.5,14.5l-2.4-1l-0.9-4.8l-1.6,3.8l-2.4-1l3.2-7.5l2.4,1l0.9,4.9L63.3,6l2.4,1L62.5,14.5z"/>
	<path class="st0" d="M75.7,15c0.2,0.6,0.3,1.2,0.2,1.8c-0.1,0.6-0.3,1.2-0.6,1.7l-2-1.8c0.1-0.3,0.1-0.6,0-0.8
		c-0.1-0.3-0.2-0.5-0.4-0.7c-0.3-0.3-0.7-0.4-1.1-0.3c-0.4,0.1-0.8,0.3-1.2,0.7s-0.6,0.8-0.6,1.2c0,0.4,0.1,0.8,0.4,1
		c0.2,0.2,0.5,0.3,0.7,0.4c0.3,0,0.5,0,0.8-0.1l2,1.8c-0.5,0.4-1.1,0.7-1.7,0.8c-0.6,0.1-1.2,0.1-1.8-0.1c-0.6-0.2-1.1-0.5-1.7-1
		c-0.6-0.6-1-1.2-1.2-1.8c-0.2-0.7-0.2-1.3,0-2c0.2-0.7,0.5-1.3,1.1-1.9c0.5-0.6,1.2-1,1.8-1.3c0.7-0.2,1.3-0.3,2-0.1
		c0.7,0.2,1.3,0.5,1.9,1.1C75.1,13.9,75.5,14.4,75.7,15z"/>
	<path class="st0" d="M82.1,23.2c0.1,0.7-0.1,1.4-0.4,2.1c-0.3,0.7-0.8,1.2-1.5,1.7c-0.7,0.4-1.4,0.7-2.1,0.7
		c-0.7,0-1.4-0.1-2.1-0.4c-0.7-0.3-1.2-0.8-1.6-1.4c-0.4-0.6-0.7-1.3-0.7-2.1c-0.1-0.7,0.1-1.4,0.4-2.1c0.3-0.7,0.8-1.2,1.5-1.7
		c0.7-0.4,1.4-0.7,2.1-0.7c0.7,0,1.4,0.1,2.1,0.4s1.2,0.8,1.6,1.5C81.8,21.8,82,22.5,82.1,23.2z M78.3,21.8c-0.4,0-0.9,0.1-1.3,0.4
		c-0.5,0.3-0.7,0.7-0.9,1.1c-0.1,0.4,0,0.8,0.3,1.3c0.3,0.4,0.6,0.7,1.1,0.7c0.4,0,0.9-0.1,1.3-0.4c0.5-0.3,0.8-0.7,0.9-1.1
		c0.1-0.4,0-0.8-0.3-1.3C79.1,22.1,78.7,21.8,78.3,21.8z"/>
	<path class="st0" d="M85.5,29.2l-4.3,1.6c-0.4,0.1-0.6,0.3-0.7,0.6c-0.1,0.2-0.2,0.5,0,0.9c0.1,0.3,0.3,0.6,0.6,0.6
		c0.3,0.1,0.6,0.1,0.9-0.1l4.3-1.6l0.9,2.4l-4.3,1.6c-0.7,0.3-1.4,0.4-2,0.3s-1.2-0.4-1.6-0.8c-0.5-0.4-0.8-1-1.1-1.6
		c-0.2-0.6-0.3-1.3-0.3-1.9c0.1-0.6,0.3-1.1,0.7-1.6c0.4-0.5,1-0.9,1.7-1.1l4.3-1.6L85.5,29.2z"/>
	<path class="st0" d="M80.3,41.2l2.7-2l-2.9,0.4l-0.4-2.5l8.1-1.2l0.6,3.8c0.1,0.7,0.1,1.2-0.1,1.7c-0.2,0.5-0.4,0.9-0.8,1.2
		c-0.4,0.3-0.8,0.5-1.3,0.6c-0.5,0.1-1,0-1.5-0.2c-0.5-0.2-0.8-0.6-1.1-1.2L80.7,44L80.3,41.2z M84.7,39l0.2,1
		c0,0.2,0.1,0.4,0.2,0.5c0.1,0.1,0.3,0.1,0.5,0.1c0.2,0,0.4-0.1,0.5-0.3c0.1-0.1,0.1-0.3,0.1-0.6l-0.2-1L84.7,39z"/>
	<path class="st0" d="M81.5,50.5c-0.4-0.3-0.6-0.6-0.8-1.1c-0.2-0.5-0.3-1-0.2-1.7c0-1,0.3-1.8,0.8-2.4c0.5-0.6,1.2-0.9,2.1-0.9
		l-0.1,2.7c-0.5,0-0.7,0.2-0.7,0.6c0,0.1,0,0.2,0.1,0.3c0.1,0.1,0.2,0.1,0.3,0.1c0.2,0,0.3-0.1,0.5-0.3c0.1-0.2,0.3-0.5,0.4-0.9
		c0.2-0.5,0.4-0.9,0.6-1.3c0.2-0.3,0.5-0.6,0.8-0.9c0.4-0.2,0.8-0.3,1.4-0.3c0.5,0,1,0.2,1.3,0.5s0.6,0.7,0.8,1.2
		c0.2,0.5,0.2,1,0.2,1.6c0,1-0.3,1.7-0.8,2.3c-0.5,0.6-1.2,0.8-2,0.8l0.1-2.8c0.4,0,0.7-0.2,0.7-0.5c0-0.1,0-0.2-0.1-0.3
		c-0.1-0.1-0.2-0.1-0.3-0.1c-0.2,0-0.3,0.1-0.4,0.3c-0.1,0.2-0.3,0.5-0.4,0.9c-0.2,0.5-0.4,0.9-0.6,1.3c-0.2,0.3-0.5,0.6-0.8,0.9
		c-0.4,0.2-0.8,0.3-1.4,0.3C82.3,50.9,81.9,50.7,81.5,50.5z"/>
	<path class="st0" d="M84.7,61.4l-1.5,0.4l-0.1-1.3l-0.7,1.2l-1.2-1.2l1.2-0.8l-1.4,0l0.4-1.6l1.2,0.6l-0.8-1.2l1.6-0.5l0.1,1.3
		l0.6-1.1l1.2,1.1l-1.2,0.8l1.4,0l-0.4,1.6L84,60.1L84.7,61.4z"/>
	<path class="st0" d="M73.9,68.9l1.7-2.2l-0.7-1.1l1.6-2.1l4.6,7.4l-1.8,2.3L71,70.6l1.7-2.1L73.9,68.9z M75.8,69.5l2.3,0.8l-1.3-2
		L75.8,69.5z"/>
	<path class="st0" d="M71.2,81l-1.3-1.6l1.7-1.4l-4-4.7l2-1.6l4,4.7l1.6-1.4l1.3,1.6L71.2,81z"/>
	<path class="st0" d="M64,85.1l-1-1.8l1.9-1.1l-3-5.4l2.2-1.3l3,5.4L69,80l1,1.8L64,85.1z"/>
	<path class="st0" d="M59.2,84.7l-0.3-1l-2.4,0.8l-0.6-1.8l2.4-0.8l-0.4-1.1l-2.7,0.9l-0.7-1.9l5.2-1.8l2.6,7.7l-5.2,1.8l-0.7-1.9
		L59.2,84.7z"/>
	<path class="st0" d="M46.2,81l2.5-0.3l3.2,3.7l-0.5-4.1l2.5-0.3l1,8.1l-2.5,0.3l-3.2-3.8l0.5,4.1l-2.5,0.3L46.2,81z"/>
	<path class="st0" d="M38.1,82.2c0.4-0.6,1-1,1.6-1.3c0.7-0.3,1.4-0.4,2.3-0.3l3.4,0.4l-0.9,8.1l-3.4-0.4c-0.8-0.1-1.6-0.3-2.2-0.8
		c-0.6-0.4-1-0.9-1.3-1.6c-0.3-0.6-0.4-1.4-0.3-2.1C37.5,83.5,37.7,82.8,38.1,82.2z M40.6,83.3C40.3,83.5,40,84,40,84.6
		c-0.1,0.6,0.1,1,0.4,1.4c0.3,0.4,0.7,0.6,1.3,0.6l0.6,0.1l0.4-3.6L42,82.9C41.5,82.9,41,83,40.6,83.3z"/>
	<path class="st0" d="M33,85l0.3-1l-2.4-0.8l0.6-1.8l2.4,0.8l0.4-1.1l-2.8-0.9l0.6-1.9l5.2,1.7l-2.5,7.8l-5.2-1.7l0.6-1.9L33,85z"/>
	<path class="st0" d="M28.1,78.5L25.2,77l1-1.8l5.4,2.9l-0.9,1.7L25.8,82l2.9,1.5l-1,1.8l-5.4-2.9l0.9-1.7L28.1,78.5z"/>
	<path class="st0" d="M14.2,75l0.4-1.6l1.2,0.5l-0.7-1.1l1.6-0.5l0.1,1.4l0.7-1.2l1.2,1.1l-1.1,0.8l1.4-0.1l-0.4,1.7l-1.2-0.5
		l0.7,1.1L16.5,77l-0.1-1.4l-0.7,1.3l-1.2-1.1l1.2-0.8L14.2,75z"/>
</g>
</svg>
