<?xml version="1.0" encoding="utf-8"?>
<!-- Generator: Adobe Illustrator 23.0.3, SVG Export Plug-In . SVG Version: 6.00 Build 0)  -->
<svg version="1.1" id="Calque_1" xmlns="http://www.w3.org/2000/svg" xmlns:xlink="http://www.w3.org/1999/xlink" x="0px" y="0px"
	 viewBox="0 0 90.5 90.1" style="enable-background:new 0 0 90.5 90.1;" xml:space="preserve">
<style type="text/css">
	.st0{fill:#FFFFFF;}
</style>
<g>
	<path class="st0" d="M24.9,7.9c0.6-0.1,1.2,0,1.8,0.2c0.6,0.2,1.1,0.6,1.5,1.1l-2.3,1.4c-0.2-0.2-0.5-0.2-0.8-0.3
		c-0.3,0-0.5,0.1-0.8,0.2c-0.4,0.2-0.6,0.5-0.6,1c0,0.4,0.1,0.8,0.4,1.3c0.3,0.5,0.6,0.8,1,0.9c0.4,0.1,0.8,0.1,1.1-0.1
		c0.2-0.2,0.4-0.4,0.5-0.6c0.1-0.2,0.1-0.5,0.1-0.8l2.3-1.4c0.2,0.6,0.3,1.2,0.3,1.8c0,0.6-0.2,1.2-0.6,1.7c-0.3,0.5-0.8,1-1.4,1.3
		c-0.7,0.4-1.4,0.7-2.1,0.7c-0.7,0-1.4-0.1-2-0.5c-0.6-0.4-1.1-0.9-1.6-1.6c-0.4-0.7-0.7-1.4-0.7-2.1c-0.1-0.7,0.1-1.4,0.4-2
		c0.3-0.6,0.8-1.1,1.5-1.6C23.7,8.2,24.3,7.9,24.9,7.9z"/>
	<path class="st0" d="M33.1,10.6l2.3-0.9l0.7,1.8l-4.7,1.8l-2.9-7.6l2.4-0.9L33.1,10.6z"/>
	<path class="st0" d="M37.3,2.9l1.9,7.9l-2.5,0.6l-1.9-7.9L37.3,2.9z"/>
	<path class="st0" d="M45.4,11.4l-0.9-1.2c-0.2,0-0.4,0.1-0.6,0.1c-0.8,0.1-1.5-0.1-2.1-0.4c-0.7-0.3-1.2-0.8-1.6-1.4
		c-0.4-0.6-0.7-1.3-0.7-2.1c-0.1-0.8,0.1-1.5,0.4-2.2c0.3-0.7,0.8-1.2,1.4-1.6c0.6-0.4,1.3-0.6,2.1-0.7c0.8-0.1,1.5,0.1,2.1,0.4
		c0.7,0.3,1.2,0.8,1.6,1.4c0.4,0.6,0.7,1.3,0.7,2.1c0,0.7,0,1.3-0.3,1.8c-0.2,0.6-0.5,1.1-1,1.5l1.8,2.1L45.4,11.4z M42.6,7.5
		c0.3,0.3,0.7,0.4,1.2,0.4c0.5,0,0.9-0.2,1.1-0.6C45.2,7,45.3,6.5,45.3,6c0-0.6-0.2-1-0.5-1.3c-0.3-0.3-0.7-0.4-1.2-0.4
		c-0.5,0-0.9,0.2-1.2,0.6c-0.3,0.3-0.4,0.8-0.3,1.4C42.1,6.7,42.3,7.2,42.6,7.5z"/>
	<path class="st0" d="M52.4,2.3l-0.7,4.5c-0.1,0.4,0,0.7,0.1,0.9c0.1,0.2,0.4,0.4,0.7,0.5c0.4,0.1,0.7,0,0.9-0.2
		c0.2-0.2,0.3-0.5,0.4-0.8l0.7-4.5L57,3.1l-0.7,4.5c-0.1,0.8-0.4,1.4-0.8,1.9c-0.4,0.5-0.9,0.8-1.5,1c-0.6,0.2-1.2,0.2-1.9,0.1
		s-1.3-0.3-1.8-0.7c-0.5-0.4-0.8-0.8-1-1.4c-0.2-0.6-0.2-1.3-0.1-2l0.7-4.5L52.4,2.3z"/>
	<path class="st0" d="M61,6.6l-0.4,1L63,8.4l-0.7,1.8l-2.4-0.9l-0.4,1.1l2.7,1l-0.7,1.9l-5.1-1.9l2.9-7.7l5.1,1.9l-0.7,1.9L61,6.6z"
		/>
	<path class="st0" d="M65.6,15.7l0.2-3.3l-1.5,2.5l-2.2-1.3l4.3-7l3.3,2c0.6,0.3,1,0.7,1.3,1.2c0.3,0.4,0.4,0.9,0.4,1.4
		c0,0.5-0.1,0.9-0.4,1.4c-0.3,0.5-0.7,0.8-1.1,1c-0.5,0.2-1,0.2-1.6,0.1L68,17.2L65.6,15.7z M66.7,11l0.9,0.5
		c0.2,0.1,0.4,0.2,0.6,0.1c0.2,0,0.3-0.1,0.4-0.4c0.1-0.2,0.1-0.4,0.1-0.5c0-0.2-0.2-0.3-0.4-0.4l-0.9-0.5L66.7,11z"/>
	<path class="st0" d="M73.4,18.7l-1.9,1.8l-1.8-1.8l5.9-5.7l2.5,2.6c0.7,0.7,1,1.4,1.1,2.2c0,0.7-0.3,1.4-0.9,2
		c-0.4,0.4-0.8,0.6-1.3,0.7c-0.5,0.1-1,0.1-1.5-0.1c-0.5-0.2-1-0.5-1.4-1L73.4,18.7z M76.4,17.9c0.4-0.3,0.4-0.7,0-1.1l-0.5-0.5
		l-1.1,1l0.5,0.5C75.7,18.2,76.1,18.2,76.4,17.9z"/>
	<path class="st0" d="M84.5,24.9c0,0.7-0.1,1.4-0.5,2.1c-0.3,0.7-0.9,1.2-1.5,1.6c-0.7,0.4-1.4,0.6-2.1,0.6c-0.7,0-1.4-0.2-2.1-0.5
		c-0.6-0.4-1.2-0.9-1.6-1.5c-0.4-0.7-0.6-1.4-0.6-2.1c0-0.7,0.1-1.4,0.5-2.1c0.3-0.7,0.9-1.2,1.5-1.6c0.7-0.4,1.4-0.6,2.1-0.6
		s1.4,0.2,2.1,0.5c0.6,0.4,1.2,0.9,1.6,1.5C84.2,23.5,84.4,24.2,84.5,24.9z M80.8,23.3c-0.4-0.1-0.9,0-1.4,0.3
		c-0.5,0.3-0.8,0.6-0.9,1c-0.1,0.4-0.1,0.8,0.2,1.3c0.3,0.4,0.6,0.7,1,0.7c0.4,0.1,0.9,0,1.3-0.3c0.5-0.3,0.8-0.6,0.9-1.1
		c0.1-0.4,0.1-0.8-0.2-1.3C81.5,23.6,81.2,23.3,80.8,23.3z"/>
	<path class="st0" d="M87.6,31l-4.4,1.4c-0.4,0.1-0.6,0.3-0.8,0.5c-0.2,0.2-0.2,0.5-0.1,0.9c0.1,0.4,0.3,0.6,0.6,0.7
		c0.3,0.1,0.6,0.1,0.9,0l4.4-1.4l0.8,2.4l-4.4,1.4c-0.7,0.2-1.4,0.3-2,0.2c-0.6-0.1-1.2-0.4-1.6-0.9c-0.4-0.4-0.8-1-1-1.7
		c-0.2-0.7-0.3-1.3-0.2-1.9c0.1-0.6,0.4-1.1,0.8-1.6c0.4-0.5,1-0.8,1.8-1l4.4-1.4L87.6,31z"/>
	<path class="st0" d="M81.8,42.8l2.8-1.8l-2.9,0.3l-0.3-2.5l8.1-0.8l0.4,3.8c0.1,0.7,0,1.2-0.2,1.7c-0.2,0.5-0.5,0.9-0.8,1.1
		c-0.4,0.3-0.8,0.4-1.3,0.5c-0.5,0.1-1,0-1.5-0.3c-0.5-0.3-0.8-0.7-1-1.2l-2.9,2.1L81.8,42.8z M86.3,40.8l0.1,1
		c0,0.2,0.1,0.4,0.2,0.5c0.1,0.1,0.3,0.2,0.5,0.1c0.2,0,0.4-0.1,0.5-0.2c0.1-0.1,0.2-0.3,0.1-0.6l-0.1-1L86.3,40.8z"/>
	<path class="st0" d="M83.6,51l-0.5,3.2l-2-0.3l0.9-6.1l1.9,0.3l3.7,3.8l0.5-3.2l2,0.3l-0.9,6.1l-1.9-0.3L83.6,51z"/>
	<path class="st0" d="M86.1,63.2c-0.6,0.5-1.2,0.8-1.9,0.9c-0.7,0.1-1.5,0-2.2-0.3c-0.7-0.3-1.4-0.7-1.8-1.3c-0.5-0.6-0.7-1.2-0.9-2
		c-0.1-0.7,0-1.5,0.2-2.2c0.3-0.7,0.7-1.3,1.3-1.8c0.6-0.5,1.2-0.8,1.9-0.9c0.7-0.1,1.5,0,2.2,0.2c0.7,0.3,1.4,0.7,1.8,1.3
		s0.7,1.2,0.8,2c0.1,0.7,0,1.5-0.3,2.2C87.1,62.1,86.6,62.7,86.1,63.2z M85.1,59.3c-0.2-0.4-0.6-0.7-1.1-0.9c-0.5-0.2-1-0.2-1.4-0.1
		c-0.4,0.1-0.7,0.5-0.9,0.9c-0.2,0.5-0.2,0.9,0,1.3c0.2,0.4,0.6,0.7,1.1,0.9c0.5,0.2,1,0.2,1.4,0.1c0.4-0.1,0.7-0.5,0.9-0.9
		C85.3,60.1,85.3,59.7,85.1,59.3z"/>
	<path class="st0" d="M80.7,72.2c-0.7,0.3-1.4,0.4-2.1,0.4c-0.7-0.1-1.4-0.3-2.1-0.8c-0.7-0.5-1.1-1-1.4-1.7
		c-0.3-0.7-0.4-1.4-0.4-2.1c0.1-0.7,0.3-1.4,0.8-2c0.4-0.6,1-1.1,1.7-1.4c0.7-0.3,1.4-0.5,2.1-0.4c0.7,0.1,1.4,0.3,2.1,0.8
		c0.7,0.5,1.1,1,1.4,1.7c0.3,0.7,0.4,1.4,0.3,2.1c-0.1,0.7-0.3,1.4-0.8,2C81.9,71.4,81.4,71.9,80.7,72.2z M80.7,68.2
		c-0.1-0.4-0.4-0.8-0.9-1.1c-0.5-0.3-0.9-0.5-1.3-0.4s-0.8,0.3-1.1,0.7c-0.3,0.4-0.4,0.8-0.3,1.2c0.1,0.4,0.4,0.8,0.8,1.1
		c0.5,0.3,0.9,0.5,1.3,0.4c0.4,0,0.8-0.3,1.1-0.7C80.7,69,80.8,68.6,80.7,68.2z"/>
	<path class="st0" d="M70.6,82.4l-5.2-6.3l2-1.6l2.6,3.1l-1.6-3.9l1.7-1.4l3.6,2.3l-2.6-3.1l2-1.6l5.2,6.3l-2.4,2l-4.5-2.6l1.8,4.9
		L70.6,82.4z"/>
	<path class="st0" d="M65,83L64.6,82l-2.3,1.1l-0.9-1.7l2.3-1.1l-0.5-1l-2.6,1.3l-0.9-1.8l4.9-2.4l3.7,7.3l-4.9,2.4l-0.9-1.8L65,83z
		"/>
	<path class="st0" d="M55.2,80.1l2.3,2.4l-0.8-2.8l2.5-0.7l2.2,7.9l-3.7,1c-0.6,0.2-1.2,0.2-1.7,0.1s-0.9-0.3-1.3-0.6
		c-0.3-0.3-0.6-0.7-0.7-1.2c-0.1-0.5-0.1-1,0-1.5s0.5-0.9,1-1.2l-2.6-2.5L55.2,80.1z M58,84.2l-1,0.3c-0.2,0.1-0.4,0.2-0.5,0.3
		c-0.1,0.1-0.1,0.3,0,0.6c0.1,0.2,0.2,0.4,0.3,0.4c0.2,0.1,0.3,0.1,0.6,0l1-0.3L58,84.2z"/>
	<path class="st0" d="M46.2,89.4l-0.8-1.4l1.3-0.5l-1.3-0.4l0.8-1.5l1,1l-0.4-1.3l1.6,0l-0.3,1.4l0.9-1l0.9,1.5l-1.3,0.5l1.3,0.3
		l-0.7,1.4l-1.1-0.9l0.4,1.4l-1.6,0.1l0.3-1.4L46.2,89.4z"/>
	<path class="st0" d="M38.7,88.7l-0.6-1.5l1.3-0.2l-1.2-0.6l1-1.3l0.9,1.1L40,84.9l1.6,0.2l-0.5,1.3l1.1-0.9l0.6,1.6l-1.3,0.2
		l1.2,0.5l-1,1.3l-0.9-1.1l0.2,1.4l-1.6-0.2l0.5-1.3L38.7,88.7z"/>
	<path class="st0" d="M31.4,86.8l-0.3-1.6l1.3,0l-1.1-0.8l1.3-1.1l0.7,1.3l0.1-1.4l1.5,0.5l-0.7,1.2l1.2-0.7l0.4,1.7l-1.3,0l1.1,0.7
		l-1.2,1.1l-0.7-1.2l-0.1,1.4L32,87.4l0.7-1.2L31.4,86.8z"/>
	<path class="st0" d="M21.4,81.2c-0.3-0.5-0.5-1.1-0.5-1.7c0-0.6,0.1-1.2,0.3-1.8l2.3,1.5c0,0.3,0,0.6,0.1,0.8s0.3,0.5,0.5,0.6
		c0.4,0.2,0.7,0.3,1.1,0.1c0.4-0.1,0.7-0.4,1-0.9c0.3-0.5,0.4-0.9,0.4-1.3c0-0.4-0.2-0.7-0.6-1c-0.2-0.2-0.5-0.2-0.8-0.2
		c-0.3,0-0.5,0.1-0.8,0.2l-2.3-1.5c0.4-0.5,0.9-0.8,1.5-1.1c0.6-0.2,1.1-0.3,1.8-0.2s1.2,0.3,1.8,0.7c0.7,0.4,1.2,1,1.5,1.6
		c0.3,0.6,0.5,1.3,0.4,2c-0.1,0.7-0.3,1.4-0.7,2.1c-0.4,0.7-1,1.2-1.6,1.6c-0.6,0.4-1.3,0.5-2,0.5c-0.7,0-1.4-0.3-2.1-0.7
		C22.2,82.2,21.8,81.8,21.4,81.2z"/>
	<path class="st0" d="M20.4,72.7L18.6,71l1.3-1.4l3.6,3.5L17.9,79l-1.9-1.8L20.4,72.7z"/>
	<path class="st0" d="M11.7,72.3l6.3-5.2l1.6,2l-6.3,5.2L11.7,72.3z"/>
	<path class="st0" d="M15.9,61.2l-0.7,1.3c0.1,0.1,0.2,0.3,0.3,0.5c0.4,0.7,0.6,1.4,0.6,2.1c0,0.7-0.2,1.4-0.6,2.1s-0.9,1.2-1.6,1.6
		c-0.7,0.4-1.4,0.6-2.2,0.6c-0.7,0-1.4-0.2-2.1-0.6c-0.6-0.4-1.1-0.9-1.5-1.6c-0.4-0.7-0.6-1.4-0.6-2.1s0.2-1.4,0.6-2.1
		c0.4-0.6,0.9-1.2,1.6-1.5c0.6-0.3,1.2-0.5,1.8-0.6c0.6-0.1,1.2,0,1.7,0.2l1.1-2.5L15.9,61.2z M13.5,65.5c0.1-0.4,0.1-0.8-0.2-1.3
		c-0.3-0.4-0.6-0.7-1-0.8c-0.4-0.1-0.9,0-1.4,0.3c-0.5,0.3-0.8,0.6-1,1S10,65.6,10.2,66c0.3,0.4,0.6,0.7,1,0.8
		c0.4,0.1,0.9,0,1.4-0.3C13.1,66.2,13.4,65.9,13.5,65.5z"/>
	<path class="st0" d="M4.7,58.8l4.4-1.3c0.4-0.1,0.6-0.3,0.8-0.5c0.2-0.2,0.2-0.5,0.1-0.9c-0.1-0.4-0.3-0.6-0.5-0.7
		c-0.3-0.1-0.6-0.1-0.9,0l-4.4,1.3l-0.7-2.5L7.8,53c0.7-0.2,1.4-0.2,2-0.1c0.6,0.2,1.1,0.5,1.6,0.9c0.4,0.5,0.7,1,0.9,1.7
		c0.2,0.7,0.2,1.3,0.1,1.9S12,58.6,11.6,59c-0.4,0.4-1,0.8-1.8,1l-4.4,1.3L4.7,58.8z"/>
	<path class="st0" d="M4.9,49.3l1-0.1l-0.2-2.5l1.9-0.2L7.8,49l1.2-0.1l-0.2-2.9l2-0.2l0.5,5.4L3,52l-0.5-5.4l2-0.2L4.9,49.3z"/>
	<path class="st0" d="M11.1,41.2L8,42.4l2.9,0.3l-0.3,2.5l-8.1-0.8L3,40.6C3,40,3.2,39.4,3.5,39c0.3-0.4,0.6-0.8,1.1-1
		s0.9-0.3,1.4-0.2c0.5,0.1,1,0.3,1.4,0.6c0.4,0.3,0.6,0.8,0.8,1.4l3.3-1.4L11.1,41.2z M6.3,42.2l0.1-1c0-0.2,0-0.4-0.1-0.6
		c-0.1-0.1-0.3-0.2-0.5-0.2c-0.2,0-0.4,0-0.5,0.1c-0.1,0.1-0.2,0.3-0.2,0.5l-0.1,1L6.3,42.2z"/>
	<path class="st0" d="M5.8,29.4l1.6-0.3l0,1.3l0.8-1.1l1.1,1.3l-1.3,0.6l1.4,0.2L8.8,33l-1.2-0.8l0.6,1.3l-1.7,0.3l0-1.3l-0.8,1.1
		l-1.1-1.2L6,31.6l-1.4-0.1l0.6-1.5l1.2,0.8L5.8,29.4z"/>
	<path class="st0" d="M9.2,22.6l1.6,0L10.5,24l1-0.9l0.9,1.5L11,24.9l1.3,0.4l-0.8,1.4l-1-0.9l0.4,1.3l-1.7,0l0.3-1.3l-0.9,0.9
		l-0.8-1.4L9,24.9l-1.4-0.4l0.8-1.4l1,1L9.2,22.6z"/>
	<path class="st0" d="M13.7,16.6l1.6,0.3l-0.5,1.3l1.1-0.7l0.6,1.6l-1.4,0.1l1.2,0.6l-1,1.2l-0.8-1.1l0.1,1.4L12.9,21l0.5-1.3
		l-1.1,0.7L11.7,19l1.4-0.2l-1.3-0.6l1-1.3l0.8,1.1L13.7,16.6z"/>
</g>
</svg>
